<?xml version="1.0" encoding="UTF-8" standalone="no"?>
<!-- Created with Inkscape (http://www.inkscape.org/) -->

<svg
   xmlns:dc="http://purl.org/dc/elements/1.1/"
   xmlns:cc="http://creativecommons.org/ns#"
   xmlns:rdf="http://www.w3.org/1999/02/22-rdf-syntax-ns#"
   xmlns:svg="http://www.w3.org/2000/svg"
   xmlns="http://www.w3.org/2000/svg"
   xmlns:sodipodi="http://sodipodi.sourceforge.net/DTD/sodipodi-0.dtd"
   xmlns:inkscape="http://www.inkscape.org/namespaces/inkscape"
   width="82.207092mm"
   height="21.494133mm"
   viewBox="0 0 291.28498 76.16031"
   id="svg2"
   version="1.1"
   inkscape:version="0.91 r13725"
   sodipodi:docname="logo.svg"
   inkscape:export-filename="/home/maxim/workspace/hiwi/autogenes/lila167/AutoGeneS/docs/_static/logo.png"
   inkscape:export-xdpi="90"
   inkscape:export-ydpi="90">
  <defs
     id="defs4" />
  <sodipodi:namedview
     id="base"
     pagecolor="#ffffff"
     bordercolor="#666666"
     borderopacity="1.0"
     inkscape:pageopacity="0.0"
     inkscape:pageshadow="2"
     inkscape:zoom="0.98994949"
     inkscape:cx="61.327884"
     inkscape:cy="68.614548"
     inkscape:document-units="px"
     inkscape:current-layer="layer2"
     showgrid="false"
     inkscape:window-width="1366"
     inkscape:window-height="719"
     inkscape:window-x="0"
     inkscape:window-y="0"
     inkscape:window-maximized="1"
     fit-margin-top="7"
     fit-margin-left="7"
     fit-margin-right="7"
     fit-margin-bottom="5" />
  <metadata
     id="metadata7">
    <rdf:RDF>
      <cc:Work
         rdf:about="">
        <dc:format>image/svg+xml</dc:format>
        <dc:type
           rdf:resource="http://purl.org/dc/dcmitype/StillImage" />
        <dc:title></dc:title>
      </cc:Work>
    </rdf:RDF>
  </metadata>
  <g
     inkscape:groupmode="layer"
     id="layer2"
     inkscape:label="background"
     transform="translate(-222.23933,-319.50068)"
     style="display:none">
    <rect
       style="display:inline;opacity:1;fill:#2980b9;fill-opacity:1"
       id="rect4141"
       width="299.33136"
       height="102.97099"
       x="217.47719"
       y="295.81107" />
  </g>
  <g
     style="display:none"
     id="g4187"
     inkscape:groupmode="layer"
     inkscape:label="logo"
     transform="translate(-222.23933,-319.50068)"
     sodipodi:insensitive="true">
    <text
       sodipodi:linespacing="100%"
       id="text4189"
       y="375.21936"
       x="367.66187"
       style="font-style:normal;font-weight:normal;font-size:40px;line-height:100%;font-family:sans-serif;letter-spacing:2.70000005px;word-spacing:0px;fill:#000000;fill-opacity:1;stroke:none;stroke-width:1px;stroke-linecap:butt;stroke-linejoin:miter;stroke-opacity:1"
       xml:space="preserve"><tspan
         style="font-style:normal;font-variant:normal;font-weight:normal;font-stretch:normal;font-size:45px;line-height:100%;font-family:'Abyssinica SIL';-inkscape-font-specification:'Abyssinica SIL';text-align:center;letter-spacing:2.70000005px;text-anchor:middle;fill:#ffffff"
         y="375.21936"
         x="369.01187"
         id="tspan4191"
         sodipodi:role="line">Auto<tspan
   id="tspan4193"
   style="font-style:normal;font-variant:normal;font-weight:normal;font-stretch:normal;font-size:45px;line-height:100%;font-family:'Abyssinica SIL';-inkscape-font-specification:'Abyssinica SIL';text-align:center;letter-spacing:2.70000005px;text-anchor:middle;fill:#00ff00">Gene</tspan><tspan
   id="tspan4195"
   style="font-style:normal;font-variant:normal;font-weight:normal;font-stretch:normal;font-size:45px;line-height:100%;font-family:'Abyssinica SIL';-inkscape-font-specification:'Abyssinica SIL';text-align:center;letter-spacing:2.70000005px;text-anchor:middle;fill:#ff3f3f;fill-opacity:1">S</tspan></tspan></text>
  </g>
  <g
     inkscape:label="shadow"
     inkscape:groupmode="layer"
     id="layer1"
     style="display:none;opacity:0.25"
     transform="translate(-222.23933,-319.50068)"
     sodipodi:insensitive="true">
    <text
       xml:space="preserve"
       style="font-style:normal;font-weight:normal;font-size:40px;line-height:100%;font-family:sans-serif;letter-spacing:2.70000005px;word-spacing:0px;fill:#000000;fill-opacity:1;stroke:none;stroke-width:1px;stroke-linecap:butt;stroke-linejoin:miter;stroke-opacity:1"
       x="369.66187"
       y="377.21936"
       id="text4136"
       sodipodi:linespacing="100%"><tspan
         sodipodi:role="line"
         id="tspan4138"
         x="371.01187"
         y="377.21936"
         style="font-style:normal;font-variant:normal;font-weight:normal;font-stretch:normal;font-size:45px;line-height:100%;font-family:'Abyssinica SIL';-inkscape-font-specification:'Abyssinica SIL';text-align:center;letter-spacing:2.70000005px;text-anchor:middle;fill:#000000">AutoGeneS</tspan></text>
  </g>
  <g
     transform="translate(-222.23933,-319.50068)"
     style="display:inline;opacity:0.15500004"
     id="g4194"
     inkscape:groupmode="layer"
     inkscape:label="shadow2">
    <g
       style="font-style:normal;font-weight:normal;font-size:40px;line-height:100%;font-family:sans-serif;letter-spacing:2.70000005px;word-spacing:0px;fill:#000000;fill-opacity:1;stroke:none;stroke-width:1px;stroke-linecap:butt;stroke-linejoin:miter;stroke-opacity:1"
       id="text4196">
      <path
         d="m 268.22466,377.21936 0,-1.93359 2.59277,-0.21973 q 0.17578,0 0.32959,-0.21973 0.15381,-0.2417 0.15381,-0.43945 0,-0.0879 -0.022,-0.10986 l -3.09815,-8.23975 -10.39306,0 -2.98828,8.10791 q -0.022,0.0439 -0.022,0.13184 0,0.26367 0.21973,0.52734 0.2417,0.2417 0.43945,0.2417 l 2.65869,0.21973 0,1.93359 -9.05273,0 0,-1.93359 2.61475,-0.54932 10.48095,-28.43262 3.38379,0 10.43701,27.77344 q 0.15381,0.46143 0.28565,0.61523 0.15381,0.15381 0.65918,0.2417 l 2.02148,0.35157 0,1.93359 -10.70068,0 z m -5.27344,-25.11475 -4.37256,11.79932 8.78906,0 -4.4165,-11.79932 z"
         style="font-style:normal;font-variant:normal;font-weight:normal;font-stretch:normal;font-size:45px;line-height:100%;font-family:'Abyssinica SIL';-inkscape-font-specification:'Abyssinica SIL';text-align:center;letter-spacing:2.70000005px;text-anchor:middle;fill:#000000"
         id="path4222"
         inkscape:connector-curvature="0" />
      <path
         d="m 299.35728,377.21936 0,-2.5708 q -0.57129,0.43945 -1.40625,0.98877 -0.81299,0.54932 -1.77979,1.03271 -0.94482,0.46143 -1.99951,0.76905 -1.03272,0.32959 -2.02149,0.32959 -1.45019,0 -2.61474,-0.43946 -1.14258,-0.41748 -1.95557,-1.29638 -0.79101,-0.90088 -1.23047,-2.26319 -0.41748,-1.38427 -0.41748,-3.2959 l 0,-12.19482 -3.14209,0 0,-1.53809 5.53711,-1.75781 1.80176,0 0,14.63379 q 0,1.18652 0.21973,2.13135 0.2417,0.94482 0.74707,1.604 0.52734,0.65918 1.3623,1.01075 0.83496,0.32958 2.02149,0.32958 0.68115,0 1.38427,-0.13183 0.70313,-0.13184 1.34034,-0.32959 0.6372,-0.21973 1.18652,-0.43945 0.57129,-0.2417 0.9668,-0.43946 l 0,-15.07324 -3.16407,0 0,-1.53809 5.49317,-1.75781 1.8457,0 0,19.35791 q 0,0.41748 0.28565,0.68115 0.30761,0.26368 0.70312,0.30762 l 1.97754,0.13184 0,1.75781 -7.14111,0 z"
         style="font-style:normal;font-variant:normal;font-weight:normal;font-stretch:normal;font-size:45px;line-height:100%;font-family:'Abyssinica SIL';-inkscape-font-specification:'Abyssinica SIL';text-align:center;letter-spacing:2.70000005px;text-anchor:middle;fill:#000000"
         id="path4224"
         inkscape:connector-curvature="0" />
      <path
         d="m 325.10659,376.27454 q -0.83496,0.41748 -1.82373,0.74707 -0.83496,0.28564 -1.93359,0.50537 -1.09863,0.2417 -2.30713,0.2417 -2.54883,0 -3.69141,-1.18653 -1.14257,-1.18652 -1.14257,-3.86718 l 0,-14.94141 -2.87842,0 0,-1.47217 3.07617,-1.45019 2.02148,-4.76807 1.97754,0 0,5.44922 6.3501,0 0,2.24121 -6.3501,0 0,12.56836 q 0,1.34033 0.21973,2.28516 0.2417,0.92285 0.68115,1.51611 0.46143,0.57129 1.12061,0.83496 0.68115,0.26367 1.58203,0.26367 0.65918,0 1.20849,-0.10986 0.57129,-0.10987 0.98877,-0.26367 0.4834,-0.17579 0.90088,-0.39551 l 0,1.80176 z"
         style="font-style:normal;font-variant:normal;font-weight:normal;font-stretch:normal;font-size:45px;line-height:100%;font-family:'Abyssinica SIL';-inkscape-font-specification:'Abyssinica SIL';text-align:center;letter-spacing:2.70000005px;text-anchor:middle;fill:#000000"
         id="path4226"
         inkscape:connector-curvature="0" />
      <path
         d="m 351.05366,366.40881 q 0,2.39502 -0.76904,4.48243 -0.74707,2.06543 -2.15332,3.60351 -1.38428,1.51611 -3.38379,2.39502 -1.97754,0.87891 -4.43848,0.87891 -2.46094,0 -4.43848,-0.85694 -1.97753,-0.8789 -3.36181,-2.39502 -1.38428,-1.51611 -2.13135,-3.58154 -0.7251,-2.0874 -0.7251,-4.52637 0,-2.39502 0.74707,-4.48242 0.74707,-2.0874 2.15332,-3.62549 1.40625,-1.56006 3.38379,-2.43896 1.99951,-0.87891 4.5044,-0.87891 2.50488,0 4.48242,0.90088 1.97754,0.90088 3.33984,2.46094 1.36231,1.53808 2.06543,3.62549 0.7251,2.06543 0.7251,4.43847 z m -4.68018,-0.0439 q 0,-1.8457 -0.37353,-3.5376 -0.35156,-1.69189 -1.09863,-2.98828 -0.74707,-1.29639 -1.86768,-2.06543 -1.1206,-0.76904 -2.63672,-0.76904 -1.56006,0 -2.70263,0.76904 -1.14258,0.76904 -1.88965,2.06543 -0.7251,1.29639 -1.07666,2.98828 -0.35157,1.6919 -0.35157,3.5376 0,1.82373 0.35157,3.51562 0.37353,1.6919 1.1206,2.98828 0.74707,1.29639 1.86768,2.08741 1.1206,0.76904 2.63672,0.76904 1.53808,0 2.68066,-0.76904 1.14258,-0.76905 1.86768,-2.06543 0.74707,-1.29639 1.09863,-2.98828 0.37353,-1.6919 0.37353,-3.5376 z"
         style="font-style:normal;font-variant:normal;font-weight:normal;font-stretch:normal;font-size:45px;line-height:100%;font-family:'Abyssinica SIL';-inkscape-font-specification:'Abyssinica SIL';text-align:center;letter-spacing:2.70000005px;text-anchor:middle;fill:#000000"
         id="path4228"
         inkscape:connector-curvature="0" />
      <path
         d="m 383.19702,364.80481 q -0.48339,0.0439 -0.72509,0.32959 -0.21973,0.26367 -0.21973,0.61523 l 0,10.39307 q -1.3623,0.50537 -2.90039,0.90088 -1.31836,0.35156 -3.03223,0.61523 -1.69189,0.28565 -3.51562,0.28565 -2.50488,0 -4.65821,-0.59326 -2.13134,-0.59327 -3.88916,-1.66993 -1.73584,-1.07666 -3.07617,-2.54882 -1.34033,-1.49414 -2.26318,-3.25196 -0.90088,-1.75781 -1.36231,-3.73535 -0.46142,-1.99951 -0.46142,-4.08691 0,-3.5376 1.1206,-6.43799 1.12061,-2.92236 3.22998,-4.98779 2.10938,-2.06543 5.11963,-3.18604 3.03223,-1.14258 6.81153,-1.14258 1.14258,0 2.19726,0.13184 1.07666,0.10986 2.06543,0.30762 0.98877,0.17578 1.9336,0.41748 l 1.88964,0.4834 0.74707,0.19775 0,7.27295 -2.70263,0 -0.7251,-4.04297 q -0.0659,-0.39551 -0.32959,-0.65918 -0.26367,-0.28564 -0.57129,-0.41748 -0.0879,-0.022 -0.26367,-0.10986 -0.35156,-0.15381 -0.81299,-0.32959 -0.46142,-0.17579 -1.03271,-0.32959 -0.54932,-0.17578 -1.2085,-0.28565 -0.63721,-0.10986 -1.3623,-0.10986 -2.43897,0 -4.46045,0.85693 -2.02149,0.85694 -3.47168,2.50488 -1.4502,1.64795 -2.26319,4.08692 -0.79101,2.41699 -0.79101,5.55908 0,3.22998 0.81299,5.75684 0.81298,2.52685 2.30712,4.26269 1.51612,1.73584 3.64747,2.65869 2.13134,0.90088 4.76806,0.90088 0.74707,0 1.42822,-0.10986 0.68116,-0.10986 1.2085,-0.21973 0.52734,-0.13183 0.87891,-0.2417 0.35156,-0.10986 0.43945,-0.10986 l 0,-8.98682 q 0,-0.35156 -0.2417,-0.61523 -0.21973,-0.28565 -0.70312,-0.32959 l -3.01026,-0.21973 0,-1.95556 11.7334,0 0,1.95556 -2.28516,0.21973 z"
         style="font-style:normal;font-variant:normal;font-weight:normal;font-stretch:normal;font-size:45px;line-height:100%;font-family:'Abyssinica SIL';-inkscape-font-specification:'Abyssinica SIL';text-align:center;letter-spacing:2.70000005px;text-anchor:middle;fill:#000000"
         id="path4230"
         inkscape:connector-curvature="0" />
      <path
         d="m 409.84722,374.97815 q -0.94483,0.59326 -1.97754,1.09863 -1.01074,0.50537 -2.10938,0.87891 -1.07666,0.37353 -2.19726,0.59326 -1.12061,0.21973 -2.26319,0.21973 -2.04345,0 -3.9331,-0.68116 -1.88965,-0.70312 -3.33985,-2.0874 -1.42822,-1.38428 -2.30712,-3.47168 -0.85694,-2.10937 -0.85694,-4.92187 0,-2.63672 0.79102,-4.76807 0.79101,-2.15332 2.19726,-3.66943 1.40625,-1.53809 3.33985,-2.35108 1.93359,-0.83496 4.24072,-0.83496 2.0874,0 3.66943,0.70313 1.58203,0.68115 2.63672,1.91162 1.05469,1.20849 1.58203,2.92236 0.52735,1.6919 0.52735,3.69141 l 0,0.59326 q 0,0.35156 -0.0439,0.65918 l -14.58984,0 q 0,1.71387 0.35156,3.42773 0.37354,1.71387 1.23047,3.07618 0.85693,1.3623 2.30713,2.21923 1.45019,0.83496 3.62549,0.83496 0.96679,0 1.91162,-0.24169 0.94482,-0.26368 1.8457,-0.65918 0.92285,-0.39551 1.75781,-0.87891 0.83496,-0.50537 1.60401,-1.01074 l 0,2.74658 z m -4.5044,-12.52441 q 0,-1.12061 -0.26367,-2.06543 -0.26367,-0.9668 -0.81299,-1.66993 -0.52734,-0.70312 -1.3623,-1.09863 -0.81299,-0.41748 -1.9336,-0.41748 -1.1206,0 -2.0874,0.43945 -0.9668,0.41748 -1.71387,1.23047 -0.72509,0.81299 -1.18652,1.97754 -0.43945,1.14258 -0.52734,2.59277 l 9.88769,0 0,-0.98876 z"
         style="font-style:normal;font-variant:normal;font-weight:normal;font-stretch:normal;font-size:45px;line-height:100%;font-family:'Abyssinica SIL';-inkscape-font-specification:'Abyssinica SIL';text-align:center;letter-spacing:2.70000005px;text-anchor:middle;fill:#000000"
         id="path4232"
         inkscape:connector-curvature="0" />
      <path
         d="m 428.76303,377.21936 0,-1.75781 1.88965,-0.13184 q 0.39551,-0.0439 0.65918,-0.30762 0.28565,-0.26367 0.28565,-0.68115 l 0,-11.71142 q 0,-2.13135 -0.98877,-3.22998 -0.98877,-1.12061 -3.33985,-1.12061 -1.29638,0 -2.54882,0.37354 -1.25245,0.35156 -2.39502,0.92285 l 0,14.76562 q 0,0.41748 0.26367,0.68115 0.26367,0.26368 0.68115,0.30762 l 1.88965,0.13184 0,1.75781 -10.17334,0 0,-1.75781 2.19726,-0.13184 q 0.41748,-0.0439 0.68116,-0.30762 0.26367,-0.26367 0.26367,-0.68115 l 0,-15.62256 -3.14209,0 0,-1.47216 5.49316,-1.71387 1.84571,0 0,2.24121 q 0.94482,-0.52734 1.91162,-1.03272 0.98877,-0.50537 1.95556,-0.90087 0.9668,-0.39551 1.86768,-0.61524 0.90088,-0.2417 1.69189,-0.2417 2.94434,0 4.48243,1.82373 1.53808,1.82373 1.53808,5.11963 l 0,12.41455 q 0,0.41748 0.26367,0.68115 0.28565,0.26368 0.68116,0.30762 l 1.97753,0.13184 0,1.75781 -9.93164,0 z"
         style="font-style:normal;font-variant:normal;font-weight:normal;font-stretch:normal;font-size:45px;line-height:100%;font-family:'Abyssinica SIL';-inkscape-font-specification:'Abyssinica SIL';text-align:center;letter-spacing:2.70000005px;text-anchor:middle;fill:#000000"
         id="path4234"
         inkscape:connector-curvature="0" />
      <path
         d="m 462.79604,374.97815 q -0.94483,0.59326 -1.97754,1.09863 -1.01074,0.50537 -2.10938,0.87891 -1.07666,0.37353 -2.19726,0.59326 -1.12061,0.21973 -2.26318,0.21973 -2.04346,0 -3.93311,-0.68116 -1.88965,-0.70312 -3.33984,-2.0874 -1.42823,-1.38428 -2.30713,-3.47168 -0.85694,-2.10937 -0.85694,-4.92187 0,-2.63672 0.79102,-4.76807 0.79101,-2.15332 2.19726,-3.66943 1.40625,-1.53809 3.33985,-2.35108 1.93359,-0.83496 4.24072,-0.83496 2.0874,0 3.66943,0.70313 1.58204,0.68115 2.63672,1.91162 1.05469,1.20849 1.58203,2.92236 0.52735,1.6919 0.52735,3.69141 l 0,0.59326 q 0,0.35156 -0.0439,0.65918 l -14.58984,0 q 0,1.71387 0.35156,3.42773 0.37354,1.71387 1.23047,3.07618 0.85693,1.3623 2.30713,2.21923 1.4502,0.83496 3.62549,0.83496 0.96679,0 1.91162,-0.24169 0.94482,-0.26368 1.8457,-0.65918 0.92285,-0.39551 1.75781,-0.87891 0.83497,-0.50537 1.60401,-1.01074 l 0,2.74658 z m -4.5044,-12.52441 q 0,-1.12061 -0.26367,-2.06543 -0.26367,-0.9668 -0.81299,-1.66993 -0.52734,-0.70312 -1.3623,-1.09863 -0.81299,-0.41748 -1.93359,-0.41748 -1.12061,0 -2.08741,0.43945 -0.96679,0.41748 -1.71386,1.23047 -0.7251,0.81299 -1.18653,1.97754 -0.43945,1.14258 -0.52734,2.59277 l 9.88769,0 0,-0.98876 z"
         style="font-style:normal;font-variant:normal;font-weight:normal;font-stretch:normal;font-size:45px;line-height:100%;font-family:'Abyssinica SIL';-inkscape-font-specification:'Abyssinica SIL';text-align:center;letter-spacing:2.70000005px;text-anchor:middle;fill:#000000"
         id="path4236"
         inkscape:connector-curvature="0" />
      <path
         d="m 488.72115,368.75989 q 0,1.71386 -0.68115,3.36181 -0.65918,1.64795 -2.10938,2.94434 -1.45019,1.29639 -3.71338,2.0874 -2.26318,0.79102 -5.42724,0.79102 -1.84571,0 -3.31787,-0.26367 -1.4502,-0.26368 -2.50489,-0.57129 -1.20849,-0.37354 -2.17529,-0.83496 l 0,-7.97608 2.83447,0 0.59326,5.09766 q 0.0439,0.26367 0.26368,0.57129 0.24169,0.30761 0.48339,0.41748 l 0.37354,0.19775 q 0.32959,0.15381 0.90088,0.35156 0.57129,0.17579 1.38428,0.32959 0.83496,0.15381 1.88964,0.15381 1.42823,0 2.63672,-0.35156 1.23047,-0.37354 2.10938,-1.05469 0.8789,-0.68115 1.3623,-1.66992 0.50537,-0.98877 0.50537,-2.24121 0,-1.3623 -0.79101,-2.37305 -0.76905,-1.03271 -1.95557,-1.82373 -1.16455,-0.81299 -2.54883,-1.45019 -1.38427,-0.63721 -2.61474,-1.23047 -1.38428,-0.65918 -2.65869,-1.36231 -1.25245,-0.70312 -2.21924,-1.62597 -0.94483,-0.92285 -1.51612,-2.15332 -0.54931,-1.25244 -0.54931,-2.96631 0,-1.99951 0.79101,-3.62549 0.79102,-1.62598 2.1753,-2.76855 1.40625,-1.16456 3.29589,-1.77979 1.91163,-0.63721 4.13086,-0.63721 1.2085,0 2.26319,0.13184 1.05469,0.13183 1.97754,0.35156 0.94482,0.19776 1.75781,0.46143 0.81299,0.2417 1.53809,0.46142 l 0.3955,0.13184 0,7.00928 -2.5708,0 -0.68115,-4.30664 q -0.0439,-0.30762 -0.28564,-0.43946 -0.21973,-0.15381 -0.41749,-0.35156 -0.0879,-0.0659 -0.35156,-0.21973 -0.26367,-0.17578 -0.74707,-0.35156 -0.46142,-0.17578 -1.16455,-0.30762 -0.70312,-0.13183 -1.64795,-0.13183 -1.3623,0 -2.43896,0.39551 -1.07666,0.3955 -1.82373,1.1206 -0.74707,0.70313 -1.16455,1.66992 -0.39551,0.9668 -0.39551,2.10938 0,1.03271 0.39551,1.88965 0.41748,0.83496 1.20849,1.56006 0.81299,0.70312 1.97754,1.31835 1.16455,0.61524 2.68067,1.18653 2.04345,0.76904 3.62548,1.604 1.60401,0.83496 2.68067,1.86768 1.09863,1.03271 1.66992,2.3291 0.57129,1.27441 0.57129,2.96631 z"
         style="font-style:normal;font-variant:normal;font-weight:normal;font-stretch:normal;font-size:45px;line-height:100%;font-family:'Abyssinica SIL';-inkscape-font-specification:'Abyssinica SIL';text-align:center;letter-spacing:2.70000005px;text-anchor:middle;fill:#000000"
         id="path4238"
         inkscape:connector-curvature="0" />
    </g>
  </g>
  <g
     transform="translate(-222.23933,-319.50068)"
     inkscape:label="logo2"
     inkscape:groupmode="layer"
     id="g4183"
     style="display:inline">
    <g
       style="font-style:normal;font-weight:normal;font-size:40px;line-height:100%;font-family:sans-serif;letter-spacing:2.70000005px;word-spacing:0px;fill:#000000;fill-opacity:1;stroke:none;stroke-width:1px;stroke-linecap:butt;stroke-linejoin:miter;stroke-opacity:1"
       id="text4185">
      <path
         d="m 266.22466,375.21936 0,-1.93359 2.59277,-0.21973 q 0.17578,0 0.32959,-0.21973 0.15381,-0.2417 0.15381,-0.43945 0,-0.0879 -0.022,-0.10986 l -3.09815,-8.23975 -10.39306,0 -2.98828,8.10791 q -0.022,0.0439 -0.022,0.13184 0,0.26367 0.21973,0.52734 0.2417,0.2417 0.43945,0.2417 l 2.65869,0.21973 0,1.93359 -9.05273,0 0,-1.93359 2.61475,-0.54932 10.48095,-28.43262 3.38379,0 10.43701,27.77344 q 0.15381,0.46143 0.28565,0.61523 0.15381,0.15381 0.65918,0.2417 l 2.02148,0.35157 0,1.93359 -10.70068,0 z m -5.27344,-25.11475 -4.37256,11.79932 8.78906,0 -4.4165,-11.79932 z"
         style="font-style:normal;font-variant:normal;font-weight:normal;font-stretch:normal;font-size:45px;line-height:100%;font-family:'Abyssinica SIL';-inkscape-font-specification:'Abyssinica SIL';text-align:center;letter-spacing:2.70000005px;text-anchor:middle;fill:#ffffff"
         id="path4203"
         inkscape:connector-curvature="0" />
      <path
         d="m 297.35728,375.21936 0,-2.5708 q -0.57129,0.43945 -1.40625,0.98877 -0.81299,0.54932 -1.77979,1.03271 -0.94482,0.46143 -1.99951,0.76905 -1.03272,0.32959 -2.02149,0.32959 -1.45019,0 -2.61474,-0.43946 -1.14258,-0.41748 -1.95557,-1.29638 -0.79101,-0.90088 -1.23047,-2.26319 -0.41748,-1.38427 -0.41748,-3.2959 l 0,-12.19482 -3.14209,0 0,-1.53809 5.53711,-1.75781 1.80176,0 0,14.63379 q 0,1.18652 0.21973,2.13135 0.2417,0.94482 0.74707,1.604 0.52734,0.65918 1.3623,1.01075 0.83496,0.32958 2.02149,0.32958 0.68115,0 1.38427,-0.13183 0.70313,-0.13184 1.34034,-0.32959 0.6372,-0.21973 1.18652,-0.43945 0.57129,-0.2417 0.9668,-0.43946 l 0,-15.07324 -3.16407,0 0,-1.53809 5.49317,-1.75781 1.8457,0 0,19.35791 q 0,0.41748 0.28565,0.68115 0.30761,0.26368 0.70312,0.30762 l 1.97754,0.13184 0,1.75781 -7.14111,0 z"
         style="font-style:normal;font-variant:normal;font-weight:normal;font-stretch:normal;font-size:45px;line-height:100%;font-family:'Abyssinica SIL';-inkscape-font-specification:'Abyssinica SIL';text-align:center;letter-spacing:2.70000005px;text-anchor:middle;fill:#ffffff"
         id="path4205"
         inkscape:connector-curvature="0" />
      <path
         d="m 323.10659,374.27454 q -0.83496,0.41748 -1.82373,0.74707 -0.83496,0.28564 -1.93359,0.50537 -1.09863,0.2417 -2.30713,0.2417 -2.54883,0 -3.69141,-1.18653 -1.14257,-1.18652 -1.14257,-3.86718 l 0,-14.94141 -2.87842,0 0,-1.47217 3.07617,-1.45019 2.02148,-4.76807 1.97754,0 0,5.44922 6.3501,0 0,2.24121 -6.3501,0 0,12.56836 q 0,1.34033 0.21973,2.28516 0.2417,0.92285 0.68115,1.51611 0.46143,0.57129 1.12061,0.83496 0.68115,0.26367 1.58203,0.26367 0.65918,0 1.20849,-0.10986 0.57129,-0.10987 0.98877,-0.26367 0.4834,-0.17579 0.90088,-0.39551 l 0,1.80176 z"
         style="font-style:normal;font-variant:normal;font-weight:normal;font-stretch:normal;font-size:45px;line-height:100%;font-family:'Abyssinica SIL';-inkscape-font-specification:'Abyssinica SIL';text-align:center;letter-spacing:2.70000005px;text-anchor:middle;fill:#ffffff"
         id="path4207"
         inkscape:connector-curvature="0" />
      <path
         d="m 349.05366,364.40881 q 0,2.39502 -0.76904,4.48243 -0.74707,2.06543 -2.15332,3.60351 -1.38428,1.51611 -3.38379,2.39502 -1.97754,0.87891 -4.43848,0.87891 -2.46094,0 -4.43848,-0.85694 -1.97753,-0.8789 -3.36181,-2.39502 -1.38428,-1.51611 -2.13135,-3.58154 -0.7251,-2.0874 -0.7251,-4.52637 0,-2.39502 0.74707,-4.48242 0.74707,-2.0874 2.15332,-3.62549 1.40625,-1.56006 3.38379,-2.43896 1.99951,-0.87891 4.5044,-0.87891 2.50488,0 4.48242,0.90088 1.97754,0.90088 3.33984,2.46094 1.36231,1.53808 2.06543,3.62549 0.7251,2.06543 0.7251,4.43847 z m -4.68018,-0.0439 q 0,-1.8457 -0.37353,-3.5376 -0.35156,-1.69189 -1.09863,-2.98828 -0.74707,-1.29639 -1.86768,-2.06543 -1.1206,-0.76904 -2.63672,-0.76904 -1.56006,0 -2.70263,0.76904 -1.14258,0.76904 -1.88965,2.06543 -0.7251,1.29639 -1.07666,2.98828 -0.35157,1.6919 -0.35157,3.5376 0,1.82373 0.35157,3.51562 0.37353,1.6919 1.1206,2.98828 0.74707,1.29639 1.86768,2.08741 1.1206,0.76904 2.63672,0.76904 1.53808,0 2.68066,-0.76904 1.14258,-0.76905 1.86768,-2.06543 0.74707,-1.29639 1.09863,-2.98828 0.37353,-1.6919 0.37353,-3.5376 z"
         style="font-style:normal;font-variant:normal;font-weight:normal;font-stretch:normal;font-size:45px;line-height:100%;font-family:'Abyssinica SIL';-inkscape-font-specification:'Abyssinica SIL';text-align:center;letter-spacing:2.70000005px;text-anchor:middle;fill:#ffffff"
         id="path4209"
         inkscape:connector-curvature="0" />
      <path
         d="m 381.19702,362.80481 q -0.48339,0.0439 -0.72509,0.32959 -0.21973,0.26367 -0.21973,0.61523 l 0,10.39307 q -1.3623,0.50537 -2.90039,0.90088 -1.31836,0.35156 -3.03223,0.61523 -1.69189,0.28565 -3.51562,0.28565 -2.50488,0 -4.65821,-0.59326 -2.13134,-0.59327 -3.88916,-1.66993 -1.73584,-1.07666 -3.07617,-2.54882 -1.34033,-1.49414 -2.26318,-3.25196 -0.90088,-1.75781 -1.36231,-3.73535 -0.46142,-1.99951 -0.46142,-4.08691 0,-3.5376 1.1206,-6.43799 1.12061,-2.92236 3.22998,-4.98779 2.10938,-2.06543 5.11963,-3.18604 3.03223,-1.14258 6.81153,-1.14258 1.14258,0 2.19726,0.13184 1.07666,0.10986 2.06543,0.30762 0.98877,0.17578 1.9336,0.41748 l 1.88964,0.4834 0.74707,0.19775 0,7.27295 -2.70263,0 -0.7251,-4.04297 q -0.0659,-0.39551 -0.32959,-0.65918 -0.26367,-0.28564 -0.57129,-0.41748 -0.0879,-0.022 -0.26367,-0.10986 -0.35156,-0.15381 -0.81299,-0.32959 -0.46142,-0.17579 -1.03271,-0.32959 -0.54932,-0.17578 -1.2085,-0.28565 -0.63721,-0.10986 -1.3623,-0.10986 -2.43897,0 -4.46045,0.85693 -2.02149,0.85694 -3.47168,2.50488 -1.4502,1.64795 -2.26319,4.08692 -0.79101,2.41699 -0.79101,5.55908 0,3.22998 0.81299,5.75684 0.81298,2.52685 2.30712,4.26269 1.51612,1.73584 3.64747,2.65869 2.13134,0.90088 4.76806,0.90088 0.74707,0 1.42822,-0.10986 0.68116,-0.10986 1.2085,-0.21973 0.52734,-0.13183 0.87891,-0.2417 0.35156,-0.10986 0.43945,-0.10986 l 0,-8.98682 q 0,-0.35156 -0.2417,-0.61523 -0.21973,-0.28565 -0.70312,-0.32959 l -3.01026,-0.21973 0,-1.95556 11.7334,0 0,1.95556 -2.28516,0.21973 z"
         style="font-style:normal;font-variant:normal;font-weight:normal;font-stretch:normal;font-size:45px;line-height:100%;font-family:'Abyssinica SIL';-inkscape-font-specification:'Abyssinica SIL';text-align:center;letter-spacing:2.70000005px;text-anchor:middle;fill:#00ff00"
         id="path4211"
         inkscape:connector-curvature="0" />
      <path
         d="m 407.84722,372.97815 q -0.94483,0.59326 -1.97754,1.09863 -1.01074,0.50537 -2.10938,0.87891 -1.07666,0.37353 -2.19726,0.59326 -1.12061,0.21973 -2.26319,0.21973 -2.04345,0 -3.9331,-0.68116 -1.88965,-0.70312 -3.33985,-2.0874 -1.42822,-1.38428 -2.30712,-3.47168 -0.85694,-2.10937 -0.85694,-4.92187 0,-2.63672 0.79102,-4.76807 0.79101,-2.15332 2.19726,-3.66943 1.40625,-1.53809 3.33985,-2.35108 1.93359,-0.83496 4.24072,-0.83496 2.0874,0 3.66943,0.70313 1.58203,0.68115 2.63672,1.91162 1.05469,1.20849 1.58203,2.92236 0.52735,1.6919 0.52735,3.69141 l 0,0.59326 q 0,0.35156 -0.0439,0.65918 l -14.58984,0 q 0,1.71387 0.35156,3.42773 0.37354,1.71387 1.23047,3.07618 0.85693,1.3623 2.30713,2.21923 1.45019,0.83496 3.62549,0.83496 0.96679,0 1.91162,-0.24169 0.94482,-0.26368 1.8457,-0.65918 0.92285,-0.39551 1.75781,-0.87891 0.83496,-0.50537 1.60401,-1.01074 l 0,2.74658 z m -4.5044,-12.52441 q 0,-1.12061 -0.26367,-2.06543 -0.26367,-0.9668 -0.81299,-1.66993 -0.52734,-0.70312 -1.3623,-1.09863 -0.81299,-0.41748 -1.9336,-0.41748 -1.1206,0 -2.0874,0.43945 -0.9668,0.41748 -1.71387,1.23047 -0.72509,0.81299 -1.18652,1.97754 -0.43945,1.14258 -0.52734,2.59277 l 9.88769,0 0,-0.98876 z"
         style="font-style:normal;font-variant:normal;font-weight:normal;font-stretch:normal;font-size:45px;line-height:100%;font-family:'Abyssinica SIL';-inkscape-font-specification:'Abyssinica SIL';text-align:center;letter-spacing:2.70000005px;text-anchor:middle;fill:#00ff00"
         id="path4213"
         inkscape:connector-curvature="0" />
      <path
         d="m 426.76303,375.21936 0,-1.75781 1.88965,-0.13184 q 0.39551,-0.0439 0.65918,-0.30762 0.28565,-0.26367 0.28565,-0.68115 l 0,-11.71142 q 0,-2.13135 -0.98877,-3.22998 -0.98877,-1.12061 -3.33985,-1.12061 -1.29638,0 -2.54882,0.37354 -1.25245,0.35156 -2.39502,0.92285 l 0,14.76562 q 0,0.41748 0.26367,0.68115 0.26367,0.26368 0.68115,0.30762 l 1.88965,0.13184 0,1.75781 -10.17334,0 0,-1.75781 2.19726,-0.13184 q 0.41748,-0.0439 0.68116,-0.30762 0.26367,-0.26367 0.26367,-0.68115 l 0,-15.62256 -3.14209,0 0,-1.47216 5.49316,-1.71387 1.84571,0 0,2.24121 q 0.94482,-0.52734 1.91162,-1.03272 0.98877,-0.50537 1.95556,-0.90087 0.9668,-0.39551 1.86768,-0.61524 0.90088,-0.2417 1.69189,-0.2417 2.94434,0 4.48243,1.82373 1.53808,1.82373 1.53808,5.11963 l 0,12.41455 q 0,0.41748 0.26367,0.68115 0.28565,0.26368 0.68116,0.30762 l 1.97753,0.13184 0,1.75781 -9.93164,0 z"
         style="font-style:normal;font-variant:normal;font-weight:normal;font-stretch:normal;font-size:45px;line-height:100%;font-family:'Abyssinica SIL';-inkscape-font-specification:'Abyssinica SIL';text-align:center;letter-spacing:2.70000005px;text-anchor:middle;fill:#00ff00"
         id="path4215"
         inkscape:connector-curvature="0" />
      <path
         d="m 460.79604,372.97815 q -0.94483,0.59326 -1.97754,1.09863 -1.01074,0.50537 -2.10938,0.87891 -1.07666,0.37353 -2.19726,0.59326 -1.12061,0.21973 -2.26318,0.21973 -2.04346,0 -3.93311,-0.68116 -1.88965,-0.70312 -3.33984,-2.0874 -1.42823,-1.38428 -2.30713,-3.47168 -0.85694,-2.10937 -0.85694,-4.92187 0,-2.63672 0.79102,-4.76807 0.79101,-2.15332 2.19726,-3.66943 1.40625,-1.53809 3.33985,-2.35108 1.93359,-0.83496 4.24072,-0.83496 2.0874,0 3.66943,0.70313 1.58204,0.68115 2.63672,1.91162 1.05469,1.20849 1.58203,2.92236 0.52735,1.6919 0.52735,3.69141 l 0,0.59326 q 0,0.35156 -0.0439,0.65918 l -14.58984,0 q 0,1.71387 0.35156,3.42773 0.37354,1.71387 1.23047,3.07618 0.85693,1.3623 2.30713,2.21923 1.4502,0.83496 3.62549,0.83496 0.96679,0 1.91162,-0.24169 0.94482,-0.26368 1.8457,-0.65918 0.92285,-0.39551 1.75781,-0.87891 0.83497,-0.50537 1.60401,-1.01074 l 0,2.74658 z m -4.5044,-12.52441 q 0,-1.12061 -0.26367,-2.06543 -0.26367,-0.9668 -0.81299,-1.66993 -0.52734,-0.70312 -1.3623,-1.09863 -0.81299,-0.41748 -1.93359,-0.41748 -1.12061,0 -2.08741,0.43945 -0.96679,0.41748 -1.71386,1.23047 -0.7251,0.81299 -1.18653,1.97754 -0.43945,1.14258 -0.52734,2.59277 l 9.88769,0 0,-0.98876 z"
         style="font-style:normal;font-variant:normal;font-weight:normal;font-stretch:normal;font-size:45px;line-height:100%;font-family:'Abyssinica SIL';-inkscape-font-specification:'Abyssinica SIL';text-align:center;letter-spacing:2.70000005px;text-anchor:middle;fill:#00ff00"
         id="path4217"
         inkscape:connector-curvature="0" />
      <path
         d="m 486.72115,366.75989 q 0,1.71386 -0.68115,3.36181 -0.65918,1.64795 -2.10938,2.94434 -1.45019,1.29639 -3.71338,2.0874 -2.26318,0.79102 -5.42724,0.79102 -1.84571,0 -3.31787,-0.26367 -1.4502,-0.26368 -2.50489,-0.57129 -1.20849,-0.37354 -2.17529,-0.83496 l 0,-7.97608 2.83447,0 0.59326,5.09766 q 0.0439,0.26367 0.26368,0.57129 0.24169,0.30761 0.48339,0.41748 l 0.37354,0.19775 q 0.32959,0.15381 0.90088,0.35156 0.57129,0.17579 1.38428,0.32959 0.83496,0.15381 1.88964,0.15381 1.42823,0 2.63672,-0.35156 1.23047,-0.37354 2.10938,-1.05469 0.8789,-0.68115 1.3623,-1.66992 0.50537,-0.98877 0.50537,-2.24121 0,-1.3623 -0.79101,-2.37305 -0.76905,-1.03271 -1.95557,-1.82373 -1.16455,-0.81299 -2.54883,-1.45019 -1.38427,-0.63721 -2.61474,-1.23047 -1.38428,-0.65918 -2.65869,-1.36231 -1.25245,-0.70312 -2.21924,-1.62597 -0.94483,-0.92285 -1.51612,-2.15332 -0.54931,-1.25244 -0.54931,-2.96631 0,-1.99951 0.79101,-3.62549 0.79102,-1.62598 2.1753,-2.76855 1.40625,-1.16456 3.29589,-1.77979 1.91163,-0.63721 4.13086,-0.63721 1.2085,0 2.26319,0.13184 1.05469,0.13183 1.97754,0.35156 0.94482,0.19776 1.75781,0.46143 0.81299,0.2417 1.53809,0.46142 l 0.3955,0.13184 0,7.00928 -2.5708,0 -0.68115,-4.30664 q -0.0439,-0.30762 -0.28564,-0.43946 -0.21973,-0.15381 -0.41749,-0.35156 -0.0879,-0.0659 -0.35156,-0.21973 -0.26367,-0.17578 -0.74707,-0.35156 -0.46142,-0.17578 -1.16455,-0.30762 -0.70312,-0.13183 -1.64795,-0.13183 -1.3623,0 -2.43896,0.39551 -1.07666,0.3955 -1.82373,1.1206 -0.74707,0.70313 -1.16455,1.66992 -0.39551,0.9668 -0.39551,2.10938 0,1.03271 0.39551,1.88965 0.41748,0.83496 1.20849,1.56006 0.81299,0.70312 1.97754,1.31835 1.16455,0.61524 2.68067,1.18653 2.04345,0.76904 3.62548,1.604 1.60401,0.83496 2.68067,1.86768 1.09863,1.03271 1.66992,2.3291 0.57129,1.27441 0.57129,2.96631 z"
         style="font-style:normal;font-variant:normal;font-weight:normal;font-stretch:normal;font-size:45px;line-height:100%;font-family:'Abyssinica SIL';-inkscape-font-specification:'Abyssinica SIL';text-align:center;letter-spacing:2.70000005px;text-anchor:middle;fill:#ff3f3f;fill-opacity:1"
         id="path4219"
         inkscape:connector-curvature="0" />
    </g>
  </g>
</svg>
